<svg width="41" height="44" viewBox="0 0 41 44" fill="none" xmlns="http://www.w3.org/2000/svg">
<path d="M6.5 17.4282C2.9283 21.0887 2.9283 27.0148 6.5 30.6753L10.0324 34.2899L12.1156 32.1525L20.1828 40.4073V40.413L20.1772 40.5374H2.33551C1.16676 40.5374 0.226151 39.5539 0.250461 38.3579V8.70461C0.250461 3.90176 2.60292 0.0078125 8.74961 0.0078125H17.965C19.2833 0.0078125 20.3548 1.10233 20.3548 2.45325L20.3249 4.23662H19.3899L6.5 17.4301V17.4282Z" fill="#273BF0"/>
<path d="M40.3615 40.5888L22.1178 21.917L12.1133 32.1542L20.1805 40.4089V40.4128L23.6792 43.9929H38.9852C40.7187 43.9929 41.5863 41.8479 40.3615 40.5888Z" fill="#00E392"/>
<path d="M10.7945 17.5532L14.3269 13.9424L22.1211 21.9179L36.0713 7.6375C37.2999 6.38416 36.4284 4.2334 34.6949 4.2334H19.389L6.49909 17.4269C2.92739 21.0855 2.92739 27.0135 6.49909 30.674L10.0315 34.2886L12.1147 32.1512L10.7907 30.7964C7.21904 27.1417 5.67068 22.7942 10.7907 17.5494L10.7945 17.5532Z" fill="#00DCEA"/>
<path d="M14.3251 13.9424L10.7927 17.5531C5.67262 22.798 7.22098 27.1454 10.7927 30.8002L12.1166 32.155L22.1211 21.9178L14.327 13.9424H14.3251Z" fill="#831AF0"/>
</svg>
