<svg width="125" height="44" viewBox="0 0 125 44" fill="none" xmlns="http://www.w3.org/2000/svg">
<g clip-path="url(#clip0_10010_9572)">
<path d="M6.5 17.4282C2.9283 21.0887 2.9283 27.0148 6.5 30.6753L10.0324 34.2899L12.1156 32.1525L20.1828 40.4073V40.413L20.1772 40.5374H2.33551C1.16676 40.5374 0.226151 39.5539 0.250461 38.3579V8.70461C0.250461 3.90176 2.60292 0.0078125 8.74961 0.0078125H17.965C19.2833 0.0078125 20.3548 1.10233 20.3548 2.45325L20.3249 4.23662H19.3899L6.5 17.4301V17.4282Z" fill="#273BF0"/>
<path d="M40.3615 40.5888L22.1178 21.917L12.1133 32.1542L20.1805 40.4089V40.4128L23.6792 43.9929H38.9852C40.7187 43.9929 41.5863 41.8479 40.3615 40.5888Z" fill="#00E392"/>
<path d="M10.7945 17.5532L14.3269 13.9424L22.1211 21.9179L36.0713 7.6375C37.2999 6.38416 36.4284 4.2334 34.6949 4.2334H19.389L6.49909 17.4269C2.92739 21.0855 2.92739 27.0135 6.49909 30.674L10.0315 34.2886L12.1147 32.1512L10.7907 30.7964C7.21904 27.1417 5.67068 22.7942 10.7907 17.5494L10.7945 17.5532Z" fill="#00DCEA"/>
<path d="M14.3251 13.9424L10.7927 17.5531C5.67262 22.798 7.22098 27.1454 10.7927 30.8002L12.1166 32.155L22.1211 21.9178L14.327 13.9424H14.3251Z" fill="#831AF0"/>
<path d="M46.7814 38.6932C44.5261 38.6932 42.8188 37.9738 41.6632 36.5348C40.5075 35.0959 39.9297 32.9795 39.9297 30.1859V15.8213H46.6149V28.6895C46.6149 30.0576 46.8786 31.1043 47.4078 31.8314C47.937 32.5586 48.6888 32.9221 49.6649 32.9221C50.5569 32.9221 51.419 32.681 52.2549 32.195C53.0907 31.7109 53.8275 30.869 54.4689 29.673V15.8213H61.1542V30.5705C61.1542 31.2536 61.2589 31.732 61.4683 32.0037C61.6778 32.2754 62.0462 32.438 62.5754 32.4954V38.2665C61.934 38.4081 61.3917 38.5019 60.9466 38.544C60.5016 38.5861 60.0958 38.6071 59.7349 38.6071C57.3394 38.6071 55.9743 37.6523 55.6396 35.7426L55.5143 34.3745C54.5119 35.8574 53.2647 36.9462 51.7743 37.6446C50.2839 38.3431 48.6196 38.6913 46.7814 38.6913V38.6932Z" fill="#262262"/>
<path d="M79.497 38.6933C77.8252 38.6933 76.3629 38.3298 75.11 37.6026C73.8571 36.8755 72.8678 35.8575 72.1442 34.5468V38.2666H66.3359V7.05762H73.0212V19.4991C73.7449 18.2171 74.7135 17.2125 75.9253 16.4854C77.1371 15.7582 78.5639 15.3947 80.2076 15.3947C81.6007 15.3947 82.8817 15.7008 84.0523 16.3132C85.2229 16.9255 86.2253 17.7598 87.0611 18.8141C87.897 19.8684 88.5515 21.116 89.0246 22.555C89.4977 23.9939 89.7352 25.5266 89.7352 27.1512C89.7352 28.7757 89.4772 30.2931 88.9629 31.7053C88.4468 33.1155 87.7306 34.342 86.8106 35.3811C85.8905 36.422 84.8041 37.2333 83.5512 37.8169C82.2983 38.4006 80.9462 38.6933 79.4989 38.6933H79.497ZM77.6176 32.9222C78.3974 32.9222 79.108 32.773 79.7494 32.4726C80.389 32.1741 80.9406 31.7665 81.4007 31.2537C81.8607 30.7409 82.2216 30.1362 82.4871 29.4359C82.7508 28.7374 82.8836 27.9759 82.8836 27.1492C82.8836 26.3226 82.7583 25.5898 82.5077 24.8626C82.2571 24.1355 81.9149 23.5021 81.4848 22.9606C81.0528 22.4191 80.5311 21.9924 79.9177 21.6786C79.3044 21.3648 78.6499 21.2079 77.9542 21.2079C76.8958 21.2079 75.9272 21.5791 75.0501 22.3196C74.1731 23.0601 73.4962 23.9862 73.0231 25.098V29.8013C73.4681 30.7715 74.1151 31.533 74.966 32.088C75.815 32.6429 76.6995 32.9222 77.6195 32.9222H77.6176Z" fill="#262262"/>
<path d="M93.0781 13.2554V7.05566H99.7634V13.2554H93.0781ZM93.0781 38.2666V15.8214H99.7634V38.2666H93.0781Z" fill="#262262"/>
<path d="M108.997 15.8195L112.967 22.1474L113.384 22.9587L113.801 22.1474L117.728 15.8195H124.579L116.976 27.0631L124.748 38.2647H117.896L113.759 31.9808L113.384 31.1675L113.008 31.9808L108.871 38.2647H102.02L109.791 27.0631L102.188 15.8195H108.998H108.997Z" fill="#262262"/>
</g>
<defs>
<clipPath id="clip0_10010_9572">
<rect width="125" height="44" fill="white"/>
</clipPath>
</defs>
</svg>
